HIERARCHY
ROOT Hips
{
	OFFSET 0.00 0.00 0.00
	CHANNELS 6 Xposition Yposition Zposition Xrotation Yrotation Zrotation
	JOINT LeftUpLeg
	{
		OFFSET 4.29448 0.00000 0.00000
		CHANNELS 3 Xrotation Yrotation Zrotation
		JOINT LeftLeg
		{
			OFFSET 0.00000 -19.20276 0.00000
			CHANNELS 3 Xrotation Yrotation Zrotation
			JOINT LeftFoot
			{
				OFFSET -0.02174 -15.68217 -0.01872
				CHANNELS 3 Xrotation Yrotation Zrotation
				JOINT LeftToeBase
				{
					OFFSET 0.04083 -0.34615 6.18044
					CHANNELS 3 Xrotation Yrotation Zrotation
					End Site
					{
						OFFSET 0.01735 0.60354 2.89036
					}
				}
			}
		}
	}
	JOINT RightUpLeg
	{
		OFFSET -4.29448 0.00000 0.00000
		CHANNELS 3 Xrotation Yrotation Zrotation
		JOINT RightLeg
		{
			OFFSET -0.00000 -19.20276 0.46564
			CHANNELS 3 Xrotation Yrotation Zrotation
			JOINT RightFoot
			{
				OFFSET 0.03510 -15.68217 0.03397
				CHANNELS 3 Xrotation Yrotation Zrotation
				JOINT RightToeBase
				{
					OFFSET -0.09359 -0.35473 6.17938
					CHANNELS 3 Xrotation Yrotation Zrotation
					End Site
					{
						OFFSET -0.06574 -1.30919 2.64583
					}
				}
			}
		}
	}
	JOINT Spine
	{
		OFFSET 0.00000 0.03937 0.00000
		CHANNELS 3 Xrotation Yrotation Zrotation
		JOINT Spine1
		{
			OFFSET 0.00000 8.13660 0.00000
			CHANNELS 3 Xrotation Yrotation Zrotation
			JOINT Neck
			{
				OFFSET -0.08254 7.72853 -1.10446
				CHANNELS 3 Xrotation Yrotation Zrotation
				JOINT Head
				{
					OFFSET 0.00000 7.64180 0.00000
					CHANNELS 3 Xrotation Yrotation Zrotation
					End Site
					{
						OFFSET 0.00000 4.52755 0.00000
					}
				}
			}
			JOINT LeftShoulder
			{
				OFFSET -0.08254 7.72853 -1.10446
				CHANNELS 3 Xrotation Yrotation Zrotation
				JOINT LeftArm
				{
					OFFSET 7.63573 -0.00003 0.00000
					CHANNELS 3 Xrotation Yrotation Zrotation
					JOINT LeftForeArm
					{
						OFFSET 10.94210 -0.00004 0.00000
						CHANNELS 3 Xrotation Yrotation Zrotation
						JOINT LeftHand
						{
							OFFSET 9.96262 -0.00004 0.00000
							CHANNELS 3 Xrotation Yrotation Zrotation
							JOINT LeftHandThumb
							{
								OFFSET 0.00000 0.00000 0.00000
								CHANNELS 3 Xrotation Yrotation Zrotation
								End Site
								{
									OFFSET 0.00000 0.00000 3.93700
								}
							}
							JOINT L_Wrist_End
							{
								OFFSET 3.93700 -0.00001 0.00000
								CHANNELS 3 Xrotation Yrotation Zrotation
							}
						}
					}
				}
			}
			JOINT RightShoulder
			{
				OFFSET -0.08254 7.72853 -1.10446
				CHANNELS 3 Xrotation Yrotation Zrotation
				JOINT RightArm
				{
					OFFSET -7.63573 -0.00003 0.00000
					CHANNELS 3 Xrotation Yrotation Zrotation
					JOINT RightForeArm
					{
						OFFSET -10.94210 -0.00004 0.00000
						CHANNELS 3 Xrotation Yrotation Zrotation
						JOINT RightHand
						{
							OFFSET -9.96262 -0.00004 0.00000
							CHANNELS 3 Xrotation Yrotation Zrotation
							JOINT RightHandThumb
							{
								OFFSET 0.00000 0.00000 0.00000
								CHANNELS 3 Xrotation Yrotation Zrotation
								End Site
								{
									OFFSET 0.00000 0.00000 3.93700
								}
							}
							JOINT R_Wrist_End
							{
								OFFSET -5.39369 -0.00002 0.00000
								CHANNELS 3 Xrotation Yrotation Zrotation
							}
						}
					}
				}
			}
		}
	}
}
MOTION
Frames: 19
Frame Time: 0.008333
 45.5477 -29.8574 36.1972 168.6152 -24.8638 -4.9836 -68.2430 16.5781 18.9428 24.3723 -0.0000 0.0000 -36.3462 10.0755 -14.1777 13.2271 0.0200 -0.0884 -16.2156 2.8332 -22.8171 14.3508 -0.0000 -0.0000 8.9837 -6.5657 12.4916 -28.7839 0.7102 -0.2257 23.0515 -13.0564 -29.2381 -19.2733 -5.1850 -44.9764 11.7609 7.7086 9.1876 -78.3320 7.4898 3.3471 5.1492 -24.6498 38.3280 -55.2512 -25.0000 -27.2128 0.0000 3.6283 -0.0000 -10.9858 -52.7834 71.5138 -0.0000 0.0000 -0.0000 -0.0000 0.0000 -0.0000 -7.5807 6.8214 -8.5464 -50.9171 64.5333 1.5402 0.0000 -4.4649 0.0000 -11.5224 24.4161 -9.9695 -0.0000 0.0000 -0.0000 -0.0000 0.0000 -0.0000
 45.3160 -29.6517 36.2265 169.3413 -23.4362 -2.9514 -68.0406 20.1346 17.5168 21.6511 -0.0000 0.0000 -35.2077 7.9831 -15.1733 13.7126 0.0204 -0.0917 -16.8557 5.2621 -22.3484 12.2333 -0.0000 0.0000 8.8579 -5.6251 13.4490 -29.3161 0.7241 -0.2264 23.2018 -13.3994 -29.6429 -19.2095 -5.4249 -45.2028 11.7723 6.9834 10.1151 -79.2263 7.7990 2.6038 5.9955 -25.9277 39.0972 -54.5618 -23.6779 -26.7763 0.0000 3.2354 -0.0000 -10.6818 -50.5774 71.0189 -0.0000 0.0000 -0.0000 -0.0000 0.0000 -0.0000 -7.5612 6.2391 -7.3204 -53.6182 64.5101 3.9551 0.0000 -5.0184 0.0000 -10.8551 24.5320 -10.9134 -0.0000 0.0000 -0.0000 -0.0000 0.0000 -0.0000
 45.0991 -29.4217 36.2440 169.9121 -22.0623 -1.2598 -67.5481 22.7159 16.0195 19.1522 -0.0000 0.0000 -34.4283 6.3651 -15.8571 15.0684 0.0212 -0.1010 -17.5660 7.7935 -21.8759 10.2090 0.0000 -0.0000 8.4874 -4.6753 14.0756 -29.2540 0.7225 -0.2263 23.2033 -13.5383 -29.7556 -18.8749 -5.4670 -45.5557 12.0070 6.4382 11.2901 -80.2145 8.1935 1.8201 6.9033 -27.0379 39.7820 -53.0750 -23.0974 -26.0457 0.0000 3.2192 -0.0000 -12.1345 -47.9344 68.0346 -0.0000 0.0000 -0.0000 -0.0000 0.0000 -0.0000 -7.9722 6.0551 -5.8401 -54.3582 64.1991 5.0858 0.0000 -5.1818 0.0000 -10.2372 23.6416 -11.2509 -0.0000 0.0000 -0.0000 -0.0000 0.0000 -0.0000
 44.8930 -29.1740 36.2436 170.3175 -20.8657 0.0610 -66.8054 24.3762 14.6374 16.7511 -0.0000 -0.0000 -33.7841 4.9179 -16.3030 17.0317 0.0220 -0.1144 -18.3465 10.3556 -21.2192 8.1914 -0.0000 -0.0000 8.2321 -4.2474 14.6713 -29.0172 0.7163 -0.2260 23.2056 -13.4374 -29.4852 -18.2836 -5.2014 -45.9376 12.1006 5.7097 12.3657 -80.9679 8.4790 1.1123 7.7630 -27.9513 40.1612 -50.8296 -23.4838 -24.9337 0.0000 3.8299 -0.0000 -13.0321 -46.2185 66.8510 -0.0000 0.0000 -0.0000 -0.0000 0.0000 -0.0000 -8.6736 5.6227 -4.5975 -55.3121 63.7606 7.0105 0.0000 -5.1602 0.0000 -10.5896 22.5883 -10.4675 -0.0000 0.0000 -0.0000 -0.0000 0.0000 -0.0000
 44.7040 -28.9022 36.2376 170.5145 -19.7821 1.2598 -65.7658 24.9664 13.1665 14.6933 -0.0000 0.0000 -33.2829 4.1267 -16.0376 18.1944 0.0222 -0.1224 -19.5009 12.3954 -20.6032 6.5670 -0.0000 -0.0000 7.5043 -3.5970 15.1657 -28.3432 0.6987 -0.2250 23.1784 -13.2119 -28.9660 -17.3771 -4.7734 -46.4456 12.0022 4.9059 13.3384 -81.2508 8.7002 0.3701 7.5843 -28.8895 39.8864 -48.3050 -24.5235 -24.1961 0.0000 4.8843 -0.0000 -15.4797 -44.6615 64.4866 -0.0000 0.0000 -0.0000 -0.0000 0.0000 -0.0000 -8.3911 5.0554 -3.9890 -57.0271 62.8601 9.0787 0.0000 -5.0046 0.0000 -10.7646 21.1662 -8.9970 -0.0000 0.0000 -0.0000 -0.0000 0.0000 -0.0000
 44.5303 -28.6297 36.2296 170.5505 -18.8459 2.3247 -64.6394 25.1742 11.7715 12.7612 -0.0000 0.0000 -32.8964 3.5211 -15.0626 21.5273 0.0220 -0.1453 -20.9595 13.8769 -19.8765 5.1262 -0.0000 0.0000 6.8677 -2.9295 15.1985 -29.5771 0.7309 -0.2267 23.1072 -12.7600 -28.2916 -16.0867 -4.1194 -47.1471 11.9220 4.0804 14.3415 -81.2284 8.7448 -0.4545 7.8387 -29.6971 40.0276 -45.0947 -25.8785 -23.0642 0.0000 6.1919 -0.0000 -21.3231 -42.9409 58.7976 -0.0000 0.0000 -0.0000 -0.0000 0.0000 -0.0000 -8.3678 4.0901 -3.4191 -57.9036 61.9300 11.1004 0.0000 -4.7150 0.0000 -12.4262 20.3265 -6.6477 -0.0000 0.0000 -0.0000 -0.0000 0.0000 -0.0000
 44.3471 -28.3607 36.2326 169.8841 -18.3172 3.1598 -63.0354 24.9435 10.7289 11.1883 -0.0000 0.0000 -32.6102 3.1638 -13.9735 22.7692 0.0216 -0.1538 -22.0295 15.3091 -19.0012 3.6957 0.0000 -0.0000 6.0597 -2.4316 15.0006 -29.8010 0.7368 -0.2269 23.2196 -12.1396 -27.7823 -14.1662 -3.3041 -48.0665 11.3874 2.9985 15.9546 -80.6947 8.8790 -1.2227 8.0249 -30.2971 40.7820 -42.1243 -27.0896 -22.2107 0.0000 7.9087 -0.0000 -27.6597 -41.0443 51.1777 -0.0000 0.0000 -0.0000 -0.0000 0.0000 -0.0000 -8.4100 2.8872 -2.8645 -58.8266 60.5972 13.3408 0.0000 -4.1572 0.0000 -12.5375 18.4504 -4.6386 -0.0000 0.0000 -0.0000 -0.0000 0.0000 -0.0000
 44.1877 -28.0541 36.2664 169.0088 -17.9108 3.7716 -61.6755 23.9601 9.8657 10.3465 -0.0000 0.0000 -32.4415 3.8820 -13.3051 23.2034 0.0214 -0.1568 -23.2021 16.5567 -17.9466 2.4602 -0.0000 -0.0000 5.2370 -2.2197 14.8712 -29.8944 0.7392 -0.2270 23.2682 -11.9038 -27.2008 -13.2461 -3.0907 -47.8468 10.8174 3.0632 15.6143 -80.1241 8.3440 -1.4542 8.0608 -29.1367 40.5307 -39.4916 -27.4536 -21.1167 0.0000 9.0756 -0.0000 -30.3381 -37.5796 46.2550 -0.0000 0.0000 -0.0000 -0.0000 0.0000 -0.0000 -8.5108 3.4830 -3.0116 -58.4972 59.7319 14.6440 0.0000 -4.0917 0.0000 -12.0124 17.1708 -3.5136 -0.0000 0.0000 -0.0000 -0.0000 0.0000 -0.0000
 44.0449 -27.7402 36.3248 168.1783 -17.3386 4.3869 -60.8175 22.8766 8.8983 10.2927 -0.0000 0.0000 -32.1067 5.4416 -13.2251 23.4547 0.0213 -0.1585 -24.7798 16.7010 -16.8714 1.3165 -0.0000 0.0000 4.1553 -1.8694 14.6705 -32.3662 0.8039 -0.2280 23.6534 -11.6828 -26.6873 -12.1772 -2.7715 -47.5007 10.3131 2.5371 15.9433 -79.4864 8.2587 -1.7267 8.2128 -28.2856 40.3741 -37.2006 -28.0813 -20.2780 0.0000 10.3267 -0.0000 -31.7284 -34.1802 41.6312 -0.0000 0.0000 -0.0000 -0.0000 0.0000 -0.0000 -8.3003 3.2832 -3.1286 -58.8241 58.5611 16.6084 0.0000 -3.5936 0.0000 -10.9531 15.9499 -1.7619 -0.0000 0.0000 -0.0000 -0.0000 0.0000 -0.0000
 43.9216 -27.4175 36.4086 167.2321 -16.7832 4.9749 -60.2203 21.3289 8.0140 11.0798 -0.0000 0.0000 -31.7260 7.2092 -12.5985 22.8436 0.0216 -0.1543 -26.4259 16.4357 -15.8394 0.3346 -0.0000 -0.0000 3.2703 -1.1434 14.8136 -30.6217 0.7582 -0.2276 24.2161 -11.5479 -26.0938 -11.1211 -2.4312 -47.0771 9.6597 2.0659 16.2006 -78.7628 8.1046 -2.0533 8.1948 -27.4107 40.1113 -35.7205 -28.1448 -19.8790 0.0000 10.9266 -0.0000 -32.0620 -28.8377 37.4723 -0.0000 0.0000 -0.0000 -0.0000 0.0000 -0.0000 -8.3365 3.0072 -3.2705 -58.5728 57.5144 18.4732 0.0000 -3.1826 0.0000 -11.0466 14.4586 -1.5649 -0.0000 0.0000 -0.0000 -0.0000 0.0000 -0.0000
 43.8168 -27.0903 36.5093 166.1860 -16.3245 5.4988 -59.7637 19.6544 7.3285 12.3181 -0.0000 0.0000 -31.3892 8.3589 -10.8177 21.9747 0.0219 -0.1484 -28.1781 15.7224 -14.7434 -0.4729 -0.0000 -0.0000 2.5777 -0.1187 15.1051 -31.9423 0.7928 -0.2281 24.8698 -11.4863 -25.3844 -10.2360 -2.0722 -46.6076 9.0265 1.8261 16.3088 -78.0039 7.9219 -2.3435 8.0214 -26.3309 39.6625 -34.9891 -27.6445 -19.9120 0.0000 10.7191 -0.0000 -32.0765 -20.5373 33.4255 -0.0000 0.0000 -0.0000 -0.0000 0.0000 -0.0000 -8.4861 2.8657 -3.2494 -58.9437 56.5158 20.9782 0.0000 -2.8324 0.0000 -10.6298 12.7948 -1.6731 -0.0000 0.0000 -0.0000 -0.0000 0.0000 -0.0000
 43.7204 -26.7536 36.6239 165.0827 -15.9103 5.9755 -59.2742 18.1048 6.7728 13.3425 -0.0000 0.0000 -30.8612 9.0072 -9.2244 22.6057 0.0217 -0.1527 -29.9666 14.9260 -13.6677 -1.0167 0.0000 -0.0000 1.6158 0.7890 14.7726 -31.1025 0.7708 -0.2279 25.4937 -11.3588 -24.5941 -9.4107 -1.6574 -46.0575 8.7057 2.0429 16.0898 -77.4370 7.5551 -2.6223 6.9454 -26.2977 38.9199 -33.2992 -26.0995 -20.3652 0.0000 10.0282 -0.0000 -32.4585 -13.5845 27.9638 -0.0000 0.0000 -0.0000 -0.0000 0.0000 -0.0000 -8.4444 3.1471 -3.0985 -57.9567 55.7068 22.1215 0.0000 -2.6220 0.0000 -10.2598 11.5392 -1.5749 -0.0000 0.0000 -0.0000 -0.0000 0.0000 -0.0000
 43.6249 -26.4206 36.7365 163.9562 -15.6005 6.2774 -58.8244 16.4596 6.4126 14.3355 -0.0000 0.0000 -30.4255 9.5264 -7.8884 23.6147 0.0212 -0.1596 -31.7567 13.8183 -12.4090 -1.5114 0.0000 -0.0000 0.7549 1.5014 15.0125 -31.3719 0.7779 -0.2280 26.0595 -11.1251 -23.6751 -8.7299 -1.1754 -45.3990 8.7608 2.4803 15.6753 -77.1339 7.1341 -2.8013 4.4050 -27.8555 37.7390 -29.6451 -23.0255 -21.2244 0.0000 8.6983 -0.0000 -32.5624 -8.1802 23.3314 -0.0000 0.0000 -0.0000 -0.0000 0.0000 -0.0000 -7.8869 3.5886 -2.9247 -56.6069 55.1218 22.7672 0.0000 -2.6283 0.0000 -10.2578 11.0173 -1.4214 -0.0000 0.0000 -0.0000 -0.0000 0.0000 -0.0000
 43.5360 -26.0930 36.8392 162.7436 -15.5515 6.6115 -58.3492 15.8633 6.2522 15.1943 -0.0000 0.0000 -30.1440 9.7351 -6.9697 25.6292 0.0199 -0.1734 -33.4270 12.8215 -11.1353 -1.9318 0.0000 -0.0000 -0.1481 1.9841 15.2298 -31.4027 0.7787 -0.2280 26.6384 -10.7966 -22.9168 -7.8444 -0.5825 -44.9551 8.6934 2.3167 15.9702 -76.7989 7.2507 -2.6781 6.4640 -25.4144 37.7630 -32.1011 -21.9786 -21.5840 0.0000 9.0084 -0.0000 -26.1306 -1.9151 25.7362 -0.0000 0.0000 -0.0000 -0.0000 0.0000 -0.0000 -6.8781 3.7242 -2.3391 -56.5047 54.2971 23.8905 0.0000 -2.4634 0.0000 -10.1765 10.6264 -0.3387 -0.0000 0.0000 -0.0000 -0.0000 0.0000 -0.0000
 43.4592 -25.7750 36.9519 161.4708 -15.5335 6.7774 -57.8476 15.8100 6.1481 15.8659 -0.0000 0.0000 -29.5230 9.9038 -6.7143 25.5060 0.0200 -0.1725 -34.9695 12.0062 -9.7784 -2.2340 0.0000 -0.0000 -0.7969 1.7194 14.9343 -31.5802 0.7833 -0.2280 27.0840 -10.5507 -22.0556 -7.0183 -0.1640 -44.3123 8.5185 2.7165 15.7871 -76.6502 7.2063 -2.3498 6.5128 -24.0538 37.1441 -33.3057 -19.8832 -22.8996 0.0000 9.3189 -0.0000 -25.2489 -3.3675 25.3658 -0.0000 0.0000 -0.0000 -0.0000 0.0000 -0.0000 -6.2901 4.3350 -2.0613 -57.9211 52.3210 26.6784 0.0000 -1.5830 0.0000 -8.8561 10.1208 -0.0345 -0.0000 0.0000 -0.0000 -0.0000 0.0000 -0.0000
 43.3830 -25.4685 37.0514 160.2552 -15.5838 6.8985 -57.2755 15.9904 6.1054 16.2514 -0.0000 0.0000 -29.0173 9.9040 -6.2229 25.5386 0.0200 -0.1728 -36.6251 10.7047 -8.3598 -2.4391 0.0000 -0.0000 -1.5684 1.7430 15.2784 -30.7945 0.7628 -0.2277 27.4479 -10.2708 -21.1258 -6.5234 0.2839 -43.6236 8.8135 3.3078 15.5460 -76.5755 7.0993 -2.0546 5.7673 -23.5348 35.9943 -33.0858 -17.1434 -24.0108 0.0000 9.2333 -0.0000 -25.0404 -5.0223 26.7814 -0.0000 0.0000 -0.0000 -0.0000 0.0000 -0.0000 -5.9098 5.2432 -1.8340 -57.4993 50.7418 28.3979 0.0000 -1.1531 0.0000 -8.2085 9.6774 1.4440 -0.0000 -0.0000 0.0000 -0.0000 -0.0000 0.0000
 43.3001 -25.1776 37.1403 159.1013 -15.6943 7.0512 -56.6817 16.5384 6.1131 16.4257 -0.0000 0.0000 -28.6062 9.8881 -6.1714 25.2153 0.0202 -0.1706 -38.0374 9.5972 -7.0178 -2.9927 0.0000 0.0000 -2.1594 1.3584 15.3194 -30.8897 0.7652 -0.2278 27.6795 -9.9737 -20.1767 -5.9909 0.7051 -42.9994 8.9944 3.9798 15.0658 -76.4253 6.6954 -1.4736 4.3386 -23.3034 34.3617 -32.7026 -14.2518 -24.9453 0.0000 9.2824 -0.0000 -25.6967 -7.2450 27.9583 -0.0000 0.0000 -0.0000 -0.0000 0.0000 -0.0000 -5.7971 6.1395 -1.5333 -56.7291 49.0068 30.0512 0.0000 -0.4738 0.0000 -7.3166 9.1314 2.5951 -0.0000 0.0000 -0.0000 -0.0000 0.0000 -0.0000
 43.2191 -24.9000 37.2267 157.9478 -15.8315 7.1818 -55.9748 17.1869 6.1687 16.3550 -0.0000 0.0000 -28.0185 9.6074 -6.8164 25.4645 0.0201 -0.1723 -39.3792 8.2842 -5.7111 -3.5584 0.0000 -0.0000 -2.8021 1.4091 15.2393 -31.3773 0.7780 -0.2280 27.5237 -9.7291 -19.0938 -5.0530 0.9162 -42.6890 9.0446 4.2827 14.8695 -76.2711 6.4578 -0.5078 1.5294 -23.5573 32.5645 -30.8072 -11.2350 -25.6869 0.0000 9.6430 -0.0000 -25.1346 -9.3082 29.8091 -0.0000 0.0000 -0.0000 -0.0000 0.0000 -0.0000 -6.1126 7.2694 -1.1185 -55.3419 47.4672 31.2926 0.0000 -0.2386 0.0000 -9.8491 8.7232 3.6419 -0.0000 0.0000 -0.0000 -0.0000 0.0000 -0.0000
 43.1514 -24.6585 37.2968 157.1679 -15.8508 7.3946 -55.5226 17.6033 6.1232 16.3112 -0.0000 0.0000 -27.5428 9.1026 -6.4237 25.3911 0.0201 -0.1718 -40.8652 6.7750 -4.5769 -4.2997 0.0000 -0.0000 -3.1118 1.7755 15.3017 -31.5182 0.7817 -0.2280 27.9769 -9.1796 -18.0590 -4.8799 1.7259 -42.0128 9.6441 4.4692 14.3738 -76.1637 5.6800 -0.1734 0.4220 -24.0306 30.5565 -30.0465 -8.6542 -25.8529 0.0000 10.3205 -0.0000 -24.8224 -10.3494 30.6470 -0.0000 0.0000 -0.0000 -0.0000 0.0000 -0.0000 -5.6769 7.2117 -0.7400 -54.6527 45.5880 33.1527 -0.0000 0.4830 0.0000 -8.3390 7.5583 4.6327 -0.0000 0.0000 -0.0000 -0.0000 0.0000 -0.0000
